<svg width="400" height="400" viewBox="0 0 400 400" fill="none" xmlns="http://www.w3.org/2000/svg">
<path d="M183.504 382.004V200.5H215.248V277.044L214.096 307.252L223.184 293.428L258.256 252.212L293.328 293.428L302.416 307.252L301.008 277.044V200.5H332.752V382.004H330.192L258 296.884L186.32 382.004H183.504Z" fill="#0C0C0C"/>
<path d="M66.004 18.996L66.004 200.5H97.748V123.956L96.596 93.748L105.684 107.572L140.756 148.788L175.828 107.572L184.916 93.748L183.508 123.956V200.5H215.252L215.252 18.996H212.692L140.5 104.116L68.82 18.996H66.004Z" fill="#0C0C0C"/>
<path d="M66.004 224.004V199.849L183.504 189.004L333.004 199.849V224.004L183.504 211.68L66.004 224.004Z" fill="#0C0C0C"/>
<path d="M68.5 242.5L165.5 231V383" stroke="#0C0C0C" stroke-width="12"/>
<path d="M329 179.5L236 172.5V18" stroke="#0C0C0C" stroke-width="12"/>
</svg>
