<svg width="400" height="400" viewBox="0 0 400 400" fill="none" xmlns="http://www.w3.org/2000/svg">
<rect width="400" height="400" rx="5" fill="#2E2E2F"/>
<path d="M104.812 229.993L175.237 221.644V332M293.942 184.253L226.422 179.171V67M188.308 331.277V199.5H211.355V255.073L210.519 277.005L217.117 266.968L242.58 237.044L268.044 266.968L274.642 277.005L273.619 255.073V199.5H296.666V331.277H294.808L242.394 269.477L190.353 331.277H188.308ZM103 67.7231V199.5H126.047V143.927L125.211 121.995L131.809 132.032L157.272 161.956L182.735 132.032L189.333 121.995L188.311 143.927V199.5H211.358V67.7231H209.5L157.086 129.523L105.045 67.7231H103ZM103 199.027V216.565L188.308 207.617L296.849 216.565V199.027L188.308 191.154L103 199.027Z" stroke="#0C0C0C" stroke-width="8"/>
</svg>
